<?xml version="1.0" encoding="UTF-8"?>
<!DOCTYPE svg PUBLIC "-//W3C//DTD SVG 1.1//EN" "http://www.w3.org/Graphics/SVG/1.1/DTD/svg11.dtd">
<!-- Creator: CorelDRAW 2020 (64-Bit) -->
<svg xmlns="http://www.w3.org/2000/svg" xml:space="preserve" width="174.629mm" height="140.6mm" version="1.1" style="shape-rendering:geometricPrecision; text-rendering:geometricPrecision; image-rendering:optimizeQuality; fill-rule:evenodd; clip-rule:evenodd"
viewBox="0 0 17462.94 14059.98"
 xmlns:xlink="http://www.w3.org/1999/xlink"
 xmlns:xodm="http://www.corel.com/coreldraw/odm/2003">
 <defs>
  <style type="text/css">
   <![CDATA[
    .fil0 {fill:white}
   ]]>
  </style>
 </defs>
 <g id="Layer_x0020_1">
  <metadata id="CorelCorpID_0Corel-Layer"/>
  <path class="fil0" d="M-0 0l9439.66 0c0,458.61 0,917.23 0,1375.84 -598.15,0 -1064.19,96.17 -1323.27,380.47 -247,271.03 -308.08,716.8 -31.54,1266.18l2318.56 4628.94c682.43,-1542.98 1364.87,-3085.96 2047.3,-4628.94 246.5,-557.34 65.45,-1078.81 -307.08,-1357.81 -336.61,-252.1 -821.84,-288.84 -1428.66,-288.84l0 -1375.84 6747.97 0c0,462.01 0,924.03 0,1386.04 -767.37,-26.07 -1163.68,22.87 -1603.62,345.2 -458.27,335.76 -930.15,913.88 -1105.4,1291.25l-5109.32 11037.49 -1344.71 0c-1951.5,-3679.16 -3903.01,-7358.33 -5854.51,-11037.49 -235.96,-444.89 -631.8,-1077.34 -1132.8,-1415.08 -368.48,-248.4 -882.99,-231.57 -1312.58,-233.45l0 -1373.96z"/>
 </g>
</svg>
