<?xml version='1.0' encoding='utf-8'?>
<svg xmlns:inkscape="http://www.inkscape.org/namespaces/inkscape" xmlns:sodipodi="http://sodipodi.sourceforge.net/DTD/sodipodi-0.dtd" xmlns="http://www.w3.org/2000/svg" width="512" height="512" viewBox="0 0 512 512" version="1.1" inkscape:export-xdpi="96" inkscape:export-ydpi="96" style="fill: none; stroke: none"><defs /><sodipodi:namedview inkscape:pagecheckerboard="true" borderlayer="true" bordercolor="#666666" pagecolor="#ffffff" /><g inkscape:groupmode="layer" id="g_1" transform="matrix(1.0, 0.0, 0.0, 1.0, 0.0, 0.0)" inkscape:label="ShapeLayer" style=""><g id="g_2" transform="matrix(1.0, 0.0, 0.0, 1.0, 0.0, 0.0)" style="fill-opacity:1.0;fill:rgb(197, 34, 31);fill-rule:nonzero"><path d="M 32,133.9 C 32,133.9 32,174.6 32,174.6 C 32,174.6 78.7,219.8 78.7,219.8 C 78.7,219.8 133.8,251 133.8,251 C 133.8,251 144,182.5 144,182.5 C 144,182.5 133.8,118.7 133.8,118.7 C 133.8,118.7 105.3,97.3 105.3,97.3 C 75.1,74.6 32,96.2 32,134 " style="fill-opacity:1.0;fill:rgb(197, 34, 31);fill-rule:nonzero" /></g><g id="g_3" transform="matrix(1.0, 0.0, 0.0, 1.0, 0.0, 0.0)" style="fill-opacity:1.0;fill:rgb(251, 188, 4);fill-rule:nonzero"><path d="M 378.2,118.6 C 378.2,118.6 368,183.3 368,183.3 C 368,183.3 378.2,251 378.2,251 C 378.2,251 428.2,226.2 428.2,226.2 C 428.2,226.2 480,174.6 480,174.6 C 480,174.6 480,133.9 480,133.9 C 480,96.2 436.9,74.6 406.7,97.2 C 406.7,97.2 378.2,118.6 378.2,118.6 C 378.2,118.6 378.2,118.6 378.2,118.6 Z" style="fill-opacity:1.0;fill:rgb(251, 188, 4);fill-rule:nonzero" /></g><g id="g_4" transform="matrix(1.0, 0.0, 0.0, 1.0, 0.0, 0.0)" style="fill-opacity:1.0;fill:rgb(66, 133, 244);fill-rule:nonzero"><path d="M 62.5,424 C 62.5,424 133.8,424 133.8,424 C 133.8,424 133.8,250.9 133.8,250.9 C 133.8,250.9 32,174.5 32,174.5 C 32,174.5 32,393.4 32,393.4 C 32,410.29999999999995 45.7,423.9 62.5,423.9 " style="fill-opacity:1.0;fill:rgb(66, 133, 244);fill-rule:nonzero" /></g><g id="g_5" transform="matrix(1.0, 0.0, 0.0, 1.0, 0.0, 0.0)" style="fill-opacity:1.0;fill:rgb(52, 168, 83);fill-rule:nonzero"><path d="M 378.2,424 C 378.2,424 449.5,424 449.5,424 C 466.4,424 480,410.3 480,393.5 C 480,393.5 480,174.6 480,174.6 C 480,174.6 378.2,251 378.2,251 C 378.2,251 378.2,424.1 378.2,424.1 C 378.2,424.1 378.2,424 378.2,424 Z" style="fill-opacity:1.0;fill:rgb(52, 168, 83);fill-rule:nonzero" /></g><g id="g_6" transform="matrix(1.0, 0.0, 0.0, 1.0, 0.0, 0.0)" style="fill-opacity:1.0;fill:rgb(234, 67, 53);fill-rule:nonzero"><path d="M 256,210.2 C 256,210.2 133.8,118.6 133.8,118.6 C 133.8,118.6 133.8,251 133.8,251 C 133.8,251 256,342.6 256,342.6 C 256,342.6 378.2,251 378.2,251 C 378.2,251 378.2,118.6 378.2,118.6 C 378.2,118.6 256,210.2 256,210.2 C 256,210.2 256,210.2 256,210.2 Z" style="fill-opacity:1.0;fill:rgb(234, 67, 53);fill-rule:nonzero" /></g></g></svg>