<?xml version='1.0' encoding='utf-8'?>
<svg xmlns:inkscape="http://www.inkscape.org/namespaces/inkscape" xmlns:sodipodi="http://sodipodi.sourceforge.net/DTD/sodipodi-0.dtd" xmlns="http://www.w3.org/2000/svg" width="512" height="512" viewBox="0 0 512 512" version="1.1" inkscape:export-xdpi="96" inkscape:export-ydpi="96" style="fill: none; stroke: none"><defs /><sodipodi:namedview inkscape:pagecheckerboard="true" borderlayer="true" bordercolor="#666666" pagecolor="#ffffff" /><g inkscape:groupmode="layer" id="g_1" transform="matrix(0.43204, 0.0, 0.0, 0.43204, -182.1995218, -209.77102992)" opacity="1" inkscape:label="NullLayer"><g inkscape:groupmode="layer" id="g_2" transform="matrix(6.30901, 0.0, 0.0, 6.30901, -5290.96998402, -5233.1442471)" inkscape:label="ShapeLayer" style=""><g id="g_3" transform="matrix(1.0, 0.0, 0.0, 1.0, 0.0, 0.0)" style=""><g id="g_4" transform="matrix(1.0, 0.0, 0.0, 1.0, 0.0, 0.0)" style="fill-opacity:1.0;fill:rgb(0, 0, 0);fill-rule:evenodd"><path d="M 944.3,927.4 C 944.3,927.4 1054.5,927.4 1054.5,927.4 C 1068.3,927.4 1079.5,938.6 1079.5,952.4 C 1079.5,952.4 1079.5,1048.3 1079.5,1048.3 C 1079.5,1062.1 1068.3,1073.3 1054.5,1073.3 C 1054.5,1073.3 944.3,1073.3 944.3,1073.3 C 930.5,1073.3 919.3,1062.1 919.3,1048.3 C 919.3,1048.3 919.3,952.4 919.3,952.4 C 919.3,938.6999999999999 930.5,927.4 944.3,927.4 C 944.3,927.4 944.3,927.4 944.3,927.4 C 944.3,927.4 944.3,927.4 944.3,927.4 C 944.3,927.4 944.3,927.4 944.3,927.4 Z" style="fill-opacity:1.0;fill:rgb(0, 0, 0);fill-rule:evenodd" /></g><g id="g_5" transform="matrix(1.0, 0.0, 0.0, 1.0, 0.0, 0.0)" style="fill-opacity:1.0;fill:rgb(249, 178, 55);fill-rule:evenodd"><path d="M 945.9,929.6 C 945.9,929.6 1052.8,929.6 1052.8,929.6 C 1066.1,929.6 1077,940.5 1077,953.8 C 1077,953.8 1077,1046.8 1077,1046.8 C 1077,1060.1 1066.1,1071 1052.8,1071 C 1052.8,1071 945.9,1071 945.9,1071 C 932.6,1071 921.7,1060.1 921.7,1046.8 C 921.7,1046.8 921.7,953.8 921.7,953.8 C 921.7,940.5 932.6,929.6 945.9,929.6 C 945.9,929.6 945.9,929.6 945.9,929.6 C 945.9,929.6 945.9,929.6 945.9,929.6 C 945.9,929.6 945.9,929.6 945.9,929.6 Z" style="fill-opacity:1.0;fill:rgb(249, 178, 55);fill-rule:evenodd" /></g><g id="g_6" transform="matrix(1.0, 0.0, 0.0, 1.0, 0.0, 0.0)" style="fill-opacity:1.0;fill:rgb(0, 0, 0);fill-rule:evenodd"><path d="M 993.7,968 C 993.7,968 1007.5,968 1007.5,968 C 1015.8,970.6 1014.1,981.2 1007.5,982.6 C 1007.5,982.6 990.5,982.6 990.5,982.6 C 990.5,982.6 993.7,968 993.7,968 C 993.7,968 993.7,968 993.7,968 C 993.7,968 993.7,968 993.7,968 C 993.7,968 993.7,968 993.7,968 Z&#10;M 981,955.6 C 981,955.6 966.3,1016 966.3,1016 C 966.3,1016 983.4,1016 983.4,1016 C 983.4,1016 989.3,994.8 989.3,994.8 C 990.9,994.1999999999999 994.9,992.9 1001.1,994.8 C 1002.7,995.5999999999999 1004.0,996.5 1005.1,997.5 C 1006.7,999.3 1007.2,1001.4 1006.7,1003.8 C 1006.7,1003.8 1005.4,1012.8 1005.4,1012.8 C 1005.5,1017.0999999999999 1006.5,1018.1999999999999 1009.7,1019.3 C 1009.7,1019.3 1011,1019.6 1011,1019.6 C 1011,1019.6 1017.8,1027.4 1017.8,1027.4 C 1017.8,1027.4 1008.9,1046 1008.9,1046 C 1008.9,1046 1028.4,1035.4 1028.4,1035.4 C 1028.4,1035.4 1041.9,1046.7 1041.9,1046.7 C 1041.9,1046.7 1040.5,1027.2 1040.5,1027.2 C 1040.5,1027.2 1054.6,1016.9 1054.6,1016.9 C 1054.6,1016.9 1037.4,1015.9 1037.4,1015.9 C 1037.4,1015.9 1034.6,997.3 1034.6,997.3 C 1034.6,997.3 1025,1015.5 1025,1015.5 C 1025,1015.5 1023,1015.4 1023,1015.4 C 1022.2,1015.4 1021.9,1015.5 1021.3,1015 C 1019.5999999999999,1013.7 1019.5,1012.0 1019.9,1009.4 C 1019.9,1009.4 1022.1,991.8 1022.1,991.8 C 1021.2,989.4 1019.0,987.6999999999999 1015.9,986.8 C 1015.9,986.8 1019.6,986.8 1019.6,986.8 C 1021.7,986.4 1022.2,986.1 1023.7,985 C 1032.5,975.3 1032.5,965.5 1021.7,957.2 C 1019.1,955.9000000000001 1017.5,955.7 1015.5,955.7 C 1015.5,955.7 981,955.7 981,955.7 C 981,955.7 981,955.6 981,955.6 C 981,955.6 981,955.6 981,955.6 C 981,955.6 981,955.6 981,955.6 C 981,955.6 981,955.6 981,955.6 Z" style="fill-opacity:1.0;fill:rgb(0, 0, 0);fill-rule:evenodd" /></g><g id="g_7" transform="matrix(1.0, 0.0, 0.0, 1.0, 0.0, 0.0)" style="fill-opacity:1.0;fill:rgb(255, 255, 255);fill-rule:evenodd"><path d="M 1033.5,1002.9 C 1033.5,1002.9 1036,1017.7 1036,1017.7 C 1036,1017.7 1049.8,1018.5 1049.8,1018.5 C 1049.8,1018.5 1038.5,1026.7 1038.5,1026.7 C 1038.5,1026.7 1040,1042.9 1040,1042.9 C 1040,1042.9 1028.6,1033.1 1028.6,1033.1 C 1028.6,1033.1 1012.8,1041.8 1012.8,1041.8 C 1012.8,1041.8 1020.3,1026.7 1020.3,1026.7 C 1020.3,1026.7 1012.2,1017.1 1012.2,1017.1 C 1012.2,1017.1 1026,1017.6 1026,1017.6 C 1026,1017.6 1033.5,1002.9 1033.5,1002.9 C 1033.5,1002.9 1033.5,1002.9 1033.5,1002.9 C 1033.5,1002.9 1033.5,1002.9 1033.5,1002.9 Z" style="fill-opacity:1.0;fill:rgb(255, 255, 255);fill-rule:evenodd" /></g></g></g></g></svg>