<?xml version='1.0' encoding='utf-8'?>
<svg xmlns:inkscape="http://www.inkscape.org/namespaces/inkscape" xmlns:sodipodi="http://sodipodi.sourceforge.net/DTD/sodipodi-0.dtd" xmlns="http://www.w3.org/2000/svg" width="512" height="512" viewBox="0 0 512 512" version="1.1" inkscape:export-xdpi="96" inkscape:export-ydpi="96" style="fill: none; stroke: none"><defs><linearGradient x1="32.131" y1="0.502" x2="32.131" y2="64.502" id="linearGradient_4" gradientUnits="userSpaceOnUse"><stop offset="0%" stop-color="rgb(17, 29, 46)" stop-opacity="1" /><stop offset="21.2%" stop-color="rgb(5, 24, 57)" stop-opacity="1" /><stop offset="40.699999999999996%" stop-color="rgb(10, 27, 72)" stop-opacity="1" /><stop offset="58.099999999999994%" stop-color="rgb(19, 46, 98)" stop-opacity="1" /><stop offset="73.8%" stop-color="rgb(20, 75, 126)" stop-opacity="1" /><stop offset="87.3%" stop-color="rgb(19, 100, 151)" stop-opacity="1" /><stop offset="100%" stop-color="rgb(19, 135, 184)" stop-opacity="1" /></linearGradient><linearGradient x1="32.131" y1="0.502" x2="32.131" y2="64.502" id="linearGradient_5" gradientUnits="userSpaceOnUse"><stop offset="0%" stop-color="rgb(17, 29, 46)" stop-opacity="1" /><stop offset="21.2%" stop-color="rgb(5, 24, 57)" stop-opacity="1" /><stop offset="40.699999999999996%" stop-color="rgb(10, 27, 72)" stop-opacity="1" /><stop offset="58.099999999999994%" stop-color="rgb(19, 46, 98)" stop-opacity="1" /><stop offset="73.8%" stop-color="rgb(20, 75, 126)" stop-opacity="1" /><stop offset="87.3%" stop-color="rgb(19, 100, 151)" stop-opacity="1" /><stop offset="100%" stop-color="rgb(19, 135, 184)" stop-opacity="1" /></linearGradient></defs><sodipodi:namedview inkscape:pagecheckerboard="true" borderlayer="true" bordercolor="#666666" pagecolor="#ffffff" /><g inkscape:groupmode="layer" id="g_1" transform="matrix(6.895230000000001, 0.0, 0.0, 6.895230000000001, 34.66152925999998, 31.905260949999985)" opacity="1" inkscape:label="NullLayer"><g inkscape:groupmode="layer" id="g_2" transform="matrix(1.0, 0.0, 0.0, 1.0, 0.0, 0.0)" inkscape:label="ShapeLayer" style=""><g id="g_3" transform="matrix(1.0, 0.0, 0.0, 1.0, 0.0, 0.0)" style="fill-opacity:1.0;fill:url(#linearGradient_4);fill-rule:nonzero"><path d="M 1.4,41.7 C 5.4,54.900000000000006 17.6,64.5 32.1,64.5 C 49.8,64.5 64.1,50.2 64.1,32.5 C 64.1,14.8 49.8,0.5 32.1,0.5 C 15.100000000000001,0.5 1.2000000000000002,13.7 0.1,30.4 C 2.2,33.9 3.0,36.0 1.4,41.7 C 1.4,41.7 1.4,41.7 1.4,41.7 Z" style="fill-opacity:1.0;fill:url(#linearGradient_5);fill-rule:nonzero" /></g><g id="g_6" transform="matrix(1.0, 0.0, 0.0, 1.0, 0.0, 0.0)" style="fill-opacity:1.0;fill:rgb(255, 255, 255);fill-rule:nonzero"><path d="M 36.5,24.5 C 36.5,21.1 39.2,18.4 42.6,18.4 C 46.0,18.4 48.7,21.1 48.7,24.5 C 48.7,27.9 46.0,30.6 42.6,30.6 C 39.2,30.6 36.5,27.8 36.5,24.5 C 36.5,24.5 36.5,24.5 36.5,24.5 Z&#10;M 42.6,32.6 C 38.1,32.6 34.5,29.0 34.5,24.5 C 34.5,20.0 38.1,16.4 42.6,16.4 C 47.1,16.4 50.7,20.0 50.7,24.5 C 50.7,29.0 47.1,32.6 42.6,32.6 &#10;M 28.6,47.5 C 27.1,51.0 23.1,52.6 19.6,51.2 C 18.1,50.5 16.8,49.4 16.1,47.8 C 16.1,47.8 20.1,49.4 20.1,49.4 C 22.700000000000003,50.5 25.599999999999998,49.300000000000004 26.7,46.7 C 26.7,46.7 26.7,46.7 26.7,46.7 C 27.8,44.1 26.6,41.2 24,40.1 C 24,40.1 19.8,38.5 19.8,38.5 C 21.400000000000002,37.9 23.2,37.9 24.8,38.6 C 26.5,39.300000000000004 27.8,40.599999999999994 28.5,42.3 C 29.2,44.0 29.200000000000003,45.8 28.6,47.5 &#10;M 30.4,24.5 C 30.4,24.5 30.4,24.7 30.4,24.7 C 30.4,24.7 22.6,36 22.6,36 C 21.3,35.9 20.099999999999998,36.2 18.9,36.7 C 18.4,36.900000000000006 17.9,37.2 17.4,37.5 C 17.4,37.5 0.2,30.4 0.2,30.4 C 0.2,30.4 -0.19999999999999996,36.9 1.5,41.8 C 1.5,41.8 13.7,46.8 13.7,46.8 C 14.299999999999999,49.5 16.2,51.9 18.9,53.1 C 23.4,55.0 28.6,52.8 30.5,48.3 C 31.0,47.099999999999994 31.2,45.9 31.2,44.6 C 31.2,44.6 42.4,36.6 42.4,36.6 C 42.4,36.6 42.7,36.6 42.7,36.6 C 49.400000000000006,36.6 54.9,31.099999999999998 54.9,24.4 C 54.9,17.7 49.5,12.2 42.7,12.2 C 35.900000000000006,12.299999999999999 30.4,17.8 30.4,24.5 C 30.4,24.5 30.4,24.5 30.4,24.5 Z" style="fill-opacity:1.0;fill:rgb(255, 255, 255);fill-rule:nonzero" /></g></g></g></svg>