<?xml version='1.0' encoding='utf-8'?>
<svg xmlns:inkscape="http://www.inkscape.org/namespaces/inkscape" xmlns:sodipodi="http://sodipodi.sourceforge.net/DTD/sodipodi-0.dtd" xmlns="http://www.w3.org/2000/svg" width="512" height="512" viewBox="0 0 512 512" version="1.1" inkscape:export-xdpi="96" inkscape:export-ydpi="96" style="fill: none; stroke: none"><defs><linearGradient x1="46.136" y1="11.536" x2="28.836" y2="51.9" id="linearGradient_5" gradientUnits="userSpaceOnUse"><stop offset="0%" stop-color="rgb(55, 174, 226)" stop-opacity="1" /><stop offset="100%" stop-color="rgb(30, 150, 200)" stop-opacity="1" /></linearGradient><linearGradient x1="46.136" y1="11.536" x2="28.836" y2="51.9" id="linearGradient_7" gradientUnits="userSpaceOnUse"><stop offset="0%" stop-color="rgb(55, 174, 226)" stop-opacity="1" /><stop offset="100%" stop-color="rgb(30, 150, 200)" stop-opacity="1" /></linearGradient></defs><sodipodi:namedview inkscape:pagecheckerboard="true" borderlayer="true" bordercolor="#666666" pagecolor="#ffffff" /><g inkscape:groupmode="layer" id="g_1" transform="matrix(1.84115, 0.0, 0.0, 1.84115, 35.061467600000014, 35.06310904999998)" opacity="1" inkscape:label="NullLayer"><g inkscape:groupmode="layer" id="g_2" transform="matrix(1.0, 0.0, 0.0, 1.0, 0.0, 0.0)" inkscape:label="ShapeLayer" style=""><g id="g_3" transform="matrix(3.4682100000000005, 0.0, 0.0, 3.4682100000000005, 0.0, 0.0)" style=""><g id="g_4" transform="matrix(1.0, 0.0, 0.0, 1.0, 0.0, 0.0)" style="fill-opacity:1.0;fill:url(#linearGradient_5);fill-rule:nonzero"><ellipse rx="34.6" ry="34.6" cx="34.6" cy="34.6" id="ellipse_6" style="fill-opacity:1.0;fill:url(#linearGradient_7);fill-rule:nonzero" /></g><g id="g_8" transform="matrix(1.0, 0.0, 0.0, 1.0, 0.0, 0.0)" style="fill-opacity:1.0;fill:rgb(255, 255, 255);fill-rule:nonzero"><path d="M 14.4,34.3 C 14.4,34.3 37.7,24.7 37.7,24.7 C 40.0,23.7 47.8,20.5 47.8,20.5 C 47.8,20.5 51.4,19.1 51.1,22.5 C 51.0,23.9 50.199999999999996,28.8 49.4,34.1 C 49.4,34.1 46.9,49.8 46.9,49.8 C 46.9,49.8 46.7,52.1 45,52.5 C 43.3,52.9 40.5,51.1 40,50.7 C 39.6,50.400000000000006 32.5,45.900000000000006 29.9,43.7 C 29.2,43.1 28.4,41.9 30,40.5 C 33.6,37.2 37.9,33.1 40.5,30.5 C 41.7,29.3 42.9,26.5 37.9,29.9 C 37.9,29.9 23.8,39.4 23.8,39.4 C 23.8,39.4 22.2,40.4 19.2,39.5 C 16.2,38.6 12.7,37.4 12.7,37.4 C 12.7,37.4 10.3,35.9 14.4,34.3 C 14.4,34.3 14.4,34.3 14.4,34.3 Z" style="fill-opacity:1.0;fill:rgb(255, 255, 255);fill-rule:nonzero" /></g></g></g></g></svg>